<?xml version="1.0" encoding="UTF-8"?> <svg xmlns="http://www.w3.org/2000/svg" width="43" height="43" viewBox="0 0 43 43" fill="none"><circle cx="21.5" cy="21.5" r="21.5" fill="#E9ECEF"></circle><path d="M16.466 11.397V13.301L12.147 13.908L12.428 15.905L8.22101 17.113L13.676 36.135L30.479 31.319L31.4 31.188H34.608V11.398H16.466V11.397ZM14.701 34.282L14.7 34.283L10.07 18.134L12.639 17.398L14.903 33.503L19.846 32.81L14.701 34.282ZM16.173 31.817L13.834 15.178L16.464 14.809V31.184H20.658L16.173 31.817ZM32.959 29.537H18.115V13.045H32.959V29.537Z" fill="#495057"></path><path d="M25.618 13.7581C25.618 18.4221 31.389 18.6031 31.389 22.7251C31.389 24.0911 30.282 25.1991 28.915 25.1991C27.55 25.1991 26.441 24.0921 26.441 22.7251V24.3741C26.441 26.0231 26.441 27.6721 28.09 27.6721V28.4971H23.143V27.6721C24.791 27.6721 24.791 26.0241 24.791 24.3741V22.7251C24.791 24.0911 23.684 25.1991 22.317 25.1991C20.95 25.1991 19.843 24.0921 19.843 22.7251C19.845 18.6031 25.618 18.4241 25.618 13.7581Z" fill="#495057"></path></svg> 